<svg width="452" height="314" viewBox="0 0 452 314" fill="none" xmlns="http://www.w3.org/2000/svg">
<rect width="452" height="314" fill="#F5F5F5"/>
<mask id="path-1-inside-1_0_1" fill="white">
<path fill-rule="evenodd" clip-rule="evenodd" d="M282.081 88.1525C288.754 86.1793 295.757 85.1289 302.975 85.1289C331.901 85.1289 357.35 101.993 372.083 127.517C379.327 123.602 387.421 121.413 395.962 121.413C426.911 121.413 452 150.155 452 185.609C452 221.063 426.911 249.804 395.962 249.804C384.761 249.804 374.328 246.04 365.574 239.555C350.441 259.501 328.01 272.133 302.975 272.133C288.567 272.133 275.021 267.949 263.233 260.594C259.848 290.578 230.96 314 195.826 314C159.954 314 130.595 289.586 128.24 258.699C115.152 267.186 99.4288 272.133 82.5177 272.133C36.9444 272.133 0 236.207 0 191.889C0 147.571 36.9444 111.644 82.5177 111.644C85.5109 111.644 88.4669 111.799 91.3776 112.102C91.2194 109.646 91.139 107.166 91.139 104.667C91.139 46.8609 134.149 0 187.204 0C235.102 0 274.813 38.1932 282.081 88.1525Z"/>
</mask>
<g filter="url(#filter0_i_0_1)">
<path fill-rule="evenodd" clip-rule="evenodd" d="M282.081 88.1525C288.754 86.1793 295.757 85.1289 302.975 85.1289C331.901 85.1289 357.35 101.993 372.083 127.517C379.327 123.602 387.421 121.413 395.962 121.413C426.911 121.413 452 150.155 452 185.609C452 221.063 426.911 249.804 395.962 249.804C384.761 249.804 374.328 246.04 365.574 239.555C350.441 259.501 328.01 272.133 302.975 272.133C288.567 272.133 275.021 267.949 263.233 260.594C259.848 290.578 230.96 314 195.826 314C159.954 314 130.595 289.586 128.24 258.699C115.152 267.186 99.4288 272.133 82.5177 272.133C36.9444 272.133 0 236.207 0 191.889C0 147.571 36.9444 111.644 82.5177 111.644C85.5109 111.644 88.4669 111.799 91.3776 112.102C91.2194 109.646 91.139 107.166 91.139 104.667C91.139 46.8609 134.149 0 187.204 0C235.102 0 274.813 38.1932 282.081 88.1525Z" fill="#F2FAFC"/>
</g>
<path d="M282.081 88.1525L281.091 88.2965L281.257 89.4388L282.364 89.1115L282.081 88.1525ZM372.083 127.517L371.217 128.016L371.703 128.859L372.558 128.396L372.083 127.517ZM365.574 239.555L366.169 238.752L365.375 238.163L364.777 238.951L365.574 239.555ZM263.233 260.594L263.762 259.746L262.417 258.906L262.239 260.482L263.233 260.594ZM128.24 258.699L129.237 258.623L129.109 256.944L127.696 257.86L128.24 258.699ZM91.3776 112.102L91.2743 113.096L92.4516 113.218L92.3755 112.037L91.3776 112.102ZM282.364 89.1115C288.947 87.165 295.854 86.1289 302.975 86.1289V84.1289C295.659 84.1289 288.561 85.1936 281.797 87.1936L282.364 89.1115ZM302.975 86.1289C331.489 86.1289 356.633 102.752 371.217 128.016L372.949 127.017C358.066 101.233 332.312 84.1289 302.975 84.1289V86.1289ZM372.558 128.396C379.664 124.557 387.595 122.413 395.962 122.413V120.413C387.247 120.413 378.99 122.647 371.608 126.637L372.558 128.396ZM395.962 122.413C426.235 122.413 451 150.575 451 185.609H453C453 149.734 427.586 120.413 395.962 120.413V122.413ZM451 185.609C451 220.643 426.235 248.804 395.962 248.804V250.804C427.586 250.804 453 221.483 453 185.609H451ZM395.962 248.804C384.992 248.804 374.765 245.119 366.169 238.752L364.978 240.359C373.891 246.961 384.53 250.804 395.962 250.804V248.804ZM364.777 238.951C349.807 258.681 327.657 271.133 302.975 271.133V273.133C328.363 273.133 351.074 260.321 366.37 240.16L364.777 238.951ZM302.975 271.133C288.765 271.133 275.401 267.007 263.762 259.746L262.703 261.442C274.641 268.89 288.369 273.133 302.975 273.133V271.133ZM262.239 260.482C258.922 289.864 230.554 313 195.826 313V315C231.367 315 260.773 291.292 264.226 260.706L262.239 260.482ZM195.826 313C160.366 313 131.544 288.885 129.237 258.623L127.243 258.775C129.645 290.287 159.542 315 195.826 315V313ZM127.696 257.86C114.766 266.245 99.2315 271.133 82.5177 271.133V273.133C99.626 273.133 115.537 268.128 128.784 259.538L127.696 257.86ZM82.5177 271.133C37.4702 271.133 1 235.628 1 191.889H-1C-1 236.785 36.4187 273.133 82.5177 273.133V271.133ZM1 191.889C1 148.15 37.4702 112.644 82.5177 112.644V110.644C36.4187 110.644 -1 146.993 -1 191.889H1ZM82.5177 112.644C85.4764 112.644 88.3979 112.798 91.2743 113.096L91.4808 111.107C88.5359 110.801 85.5454 110.644 82.5177 110.644V112.644ZM92.3755 112.037C92.2187 109.603 92.139 107.145 92.139 104.667H90.139C90.139 107.188 90.2201 109.689 90.3797 112.166L92.3755 112.037ZM92.139 104.667C92.139 47.3307 134.78 1 187.204 1V-1C133.518 -1 90.139 46.391 90.139 104.667H92.139ZM187.204 1C234.536 1 273.884 38.7561 281.091 88.2965L283.07 88.0086C275.742 37.6304 235.669 -1 187.204 -1V1Z" fill="black" mask="url(#path-1-inside-1_0_1)"/>
<defs>
<filter id="filter0_i_0_1" x="0" y="-25" width="482" height="339" filterUnits="userSpaceOnUse" color-interpolation-filters="sRGB">
<feFlood flood-opacity="0" result="BackgroundImageFix"/>
<feBlend mode="normal" in="SourceGraphic" in2="BackgroundImageFix" result="shape"/>
<feColorMatrix in="SourceAlpha" type="matrix" values="0 0 0 0 0 0 0 0 0 0 0 0 0 0 0 0 0 0 127 0" result="hardAlpha"/>
<feOffset dx="30" dy="-25"/>
<feGaussianBlur stdDeviation="30"/>
<feComposite in2="hardAlpha" operator="arithmetic" k2="-1" k3="1"/>
<feColorMatrix type="matrix" values="0 0 0 0 0.588235 0 0 0 0 0.803922 0 0 0 0 0.980392 0 0 0 1 0"/>
<feBlend mode="normal" in2="shape" result="effect1_innerShadow_0_1"/>
</filter>
</defs>
</svg>
